# xmcd CD database file
#
# Track frame offsets:
#	150
#	13543
#	32796
#	52593
#	72566
#	89997
#	99924
#	115323
#	128527
#	145081
#
# Disc length: 2087 seconds
#
# Revision: 0
# Processed by: cddbd v1.5.1PL0 Copyright (c) Steve Scherf et al.
# Submitted via: CDex 1.50beta10
#
DISCID=8108250a
DTITLE=The Plainsmen - Up and Down
DYEAR=2004
DGENRE=Country
TTITLE0=Tumbleweed Chore
TTITLE1=Sammy Joe and Betty Sue
TTITLE2=All Long, All This Time
TTITLE3=Jubilee
TTITLE4=So And So
TTITLE5=Besa Mexicana
TTITLE6=Abilene
TTITLE7=Rollercoaster Blues
TTITLE8=While The Years Go Past
TTITLE9=I'm Coming Home
EXTD=YEAR: 2004
EXTT0=
EXTT1=
EXTT2=
EXTT3=
EXTT4=
EXTT5=
EXTT6=
EXTT7=
EXTT8=
EXTT9=
PLAYORDER=
